<svg xmlns="http://www.w3.org/2000/svg" width="226.375" height="39" viewBox="-18 0 226.375 39" enable-background="new -18 0 226.375 39"><g><g fill="#BD1F1C"><path d="M118.296 19.463c0 4.713 3.82 8.533 8.532 8.533 4.713 0 8.533-3.82 8.533-8.533 0-4.711-3.82-8.532-8.533-8.532-4.712 0-8.532 3.821-8.532 8.532zm-5.383 0c0-7.684 6.229-13.915 13.915-13.915s13.915 6.23 13.915 13.915c0 7.686-6.229 13.916-13.915 13.916s-13.915-6.231-13.915-13.916zM122.292 19.463c0-2.504 2.03-4.535 4.536-4.535 2.505 0 4.535 2.031 4.535 4.535 0 2.506-2.03 4.537-4.535 4.537-2.506 0-4.536-2.031-4.536-4.537z"/></g><g fill="#1D1D1B"><path d="M152.256 27.376c-4.102 0-5.837-4-5.837-9.058 0-5.083 1.786-9.109 5.888-9.109 4.076 0 5.813 4.001 5.813 9.058-.001 5.085-1.788 9.109-5.864 9.109zm0-15.021c-1.887 0-2.615 2.163-2.615 5.912 0 3.75.778 5.963 2.666 5.963 1.861 0 2.592-2.164 2.592-5.913-.001-3.749-.781-5.962-2.643-5.962zM167.68 27.1l-2.742-6.693h-1.033v6.693h-3.145v-17.614h4.68c3.422 0 5.611 1.837 5.611 5.485 0 2.466-1.258 4.001-2.969 4.806l3.02 7.323h-3.422zm-2.391-14.543h-1.385v4.906h1.561c1.61 0 2.439-.83 2.439-2.441 0-1.584-.728-2.465-2.615-2.465zM176.734 12.531v3.9h4.127v3.044h-4.127v7.625h-3.145v-17.614h9.284v3.045h-6.139zM183.126 27.376c-1.132 0-2.088-.956-2.088-2.088 0-1.134.956-2.089 2.088-2.089 1.133 0 2.089.955 2.089 2.089 0 1.132-.956 2.088-2.089 2.088zM193.667 27.1v-.906c-.604.756-1.51 1.184-2.364 1.184-2.314 0-3.9-1.761-3.9-4.604 0-2.691 1.711-4.402 4.052-4.402 1.157 0 1.636.176 2.214.527v-1.006c0-.932-.402-1.636-1.585-1.636-1.106 0-1.837.251-2.667.806l-1.208-2.164c1.208-.83 2.466-1.283 4.076-1.283 3.069 0 4.354 1.51 4.354 4.402v9.082h-2.972zm0-5.586c-.478-.402-.905-.629-1.812-.629-.83 0-1.435.729-1.435 1.838 0 1.282.528 2.012 1.509 2.012.705 0 1.359-.479 1.736-1.106l.002-2.115zM205.618 26.798c-.654.353-1.384.578-2.265.578-2.14 0-3.195-1.157-3.195-4.051v-6.617h-1.637v-2.818h1.637v-3.648l2.969-1.484v5.133h2.667v2.818h-2.667v6.542c0 .981.378 1.31 1.082 1.31.579 0 1.184-.201 1.762-.629l-.353 2.866z"/></g></g><g fill="#020202"><path d="M-6.829 24.582c0 .499.3.949.7.949.175 0 .35-.025.45-.075v1.75c-.325.149-.8.325-1.325.325-1.2 0-2.2-.476-2.274-1.775h-.05c-.725 1.325-1.774 1.975-3.349 1.975-2.149 0-3.499-1.199-3.499-3.773 0-3 1.3-3.625 3.124-4.224l2.1-.575c.975-.275 1.575-.55 1.575-1.725 0-1.225-.425-2-1.85-2-1.8 0-2.049 1.275-2.049 2.575h-2.55c0-2.85 1.175-4.424 4.724-4.424 2.375 0 4.274.925 4.274 3.299v7.698zm-2.549-4.299c-.7.549-2.2.874-3 1.249-.774.375-1.1 1.175-1.1 2.175 0 1.124.55 2.024 1.675 2.024 1.625 0 2.424-1.225 2.424-3.199v-2.249zM-3.827 13.934h2.549v1.575h.075c.675-1.2 1.95-1.925 3.449-1.925 2.05 0 3.349.925 3.349 3.649v10.147h-2.699v-9.223c0-1.75-.525-2.424-1.875-2.424-1.1 0-2.149.875-2.149 2.624v9.023h-2.699v-13.446zM7.249 13.934h1.85v-3.824h2.699v3.824h2.199v2h-2.199v8.023c0 1.05.3 1.424 1.225 1.424.4 0 .725-.024.975-.074v1.999c-.575.15-1.325.226-2.174.226-1.825 0-2.724-.5-2.724-3.25v-8.348h-1.85v-2zM14.724 13.934h2.799l1.875 10.597h.05l2-10.597h3.049l2 10.597h.05l1.85-10.597h2.7l-3.074 13.447h-3.024l-2.1-10.447h-.05l-1.925 10.447h-3.149l-3.051-13.447zM37.347 13.584c3.924 0 5.024 2.899 5.024 7.074 0 4.173-1.275 7.072-5.024 7.072-3.724 0-4.999-2.899-4.999-7.072 0-4.175 1.1-7.074 4.999-7.074zm0 12.147c1.975 0 2.325-1.649 2.325-5.073 0-2.975-.35-5.074-2.325-5.074-1.949 0-2.299 2.099-2.299 5.074-.001 3.424.349 5.073 2.299 5.073zM44.698 13.934h2.699v2.1h.05c.6-1.5 1.6-2.45 3.125-2.45.3 0 .475.05.65.1v2.75c-.2-.05-.675-.15-1.125-.15-1.225 0-2.699.55-2.699 3.049v8.048h-2.699v-13.447zM51.623 13.934h1.85v-3.824h2.699v3.824h2.199v2h-2.199v8.023c0 1.05.3 1.424 1.225 1.424.4 0 .725-.024.975-.074v1.999c-.574.15-1.324.226-2.174.226-1.825 0-2.725-.5-2.725-3.25v-8.348h-1.85v-2zM64.496 13.584c3.925 0 5.024 2.899 5.024 7.074 0 4.173-1.274 7.072-5.024 7.072-3.724 0-4.998-2.899-4.998-7.072 0-4.175 1.1-7.074 4.998-7.074zm0 12.147c1.975 0 2.325-1.649 2.325-5.073 0-2.975-.351-5.074-2.325-5.074-1.949 0-2.299 2.099-2.299 5.074 0 3.424.35 5.073 2.299 5.073zM71.973 13.934h2.549v1.575h.075c.675-1.2 1.95-1.925 3.225-1.925 1.925 0 2.724.925 3.124 2.05.775-1.3 1.774-2.05 3.398-2.05 1.9 0 3.275.975 3.275 3.574v10.223h-2.699v-9.223c0-1.75-.525-2.424-1.625-2.424s-2.15.875-2.15 2.624v9.023h-2.699v-9.223c0-1.75-.524-2.424-1.648-2.424-1.075 0-2.125.875-2.125 2.624v9.023h-2.699v-13.447zM99.42 24.582c0 .499.301.949.7.949.175 0 .351-.025.45-.075v1.75c-.325.149-.8.325-1.324.325-1.2 0-2.2-.476-2.275-1.775h-.05c-.725 1.325-1.774 1.975-3.349 1.975-2.15 0-3.5-1.199-3.5-3.773 0-3 1.301-3.625 3.125-4.224l2.1-.575c.975-.275 1.574-.55 1.574-1.725 0-1.225-.425-2-1.85-2-1.8 0-2.049 1.275-2.049 2.575h-2.551c0-2.85 1.176-4.424 4.725-4.424 2.375 0 4.273.925 4.273 3.299v7.698zm-2.549-4.299c-.699.549-2.199.874-3 1.249-.773.375-1.1 1.175-1.1 2.175 0 1.124.551 2.024 1.676 2.024 1.624 0 2.424-1.225 2.424-3.199v-2.249zM101.223 13.934h1.85v-3.824h2.699v3.824h2.199v2h-2.199v8.023c0 1.05.3 1.424 1.225 1.424.4 0 .725-.024.975-.074v1.999c-.574.15-1.324.226-2.174.226-1.825 0-2.725-.5-2.725-3.25v-8.348h-1.85v-2z"/></g></svg>